<?xml version="1.0" encoding="utf-8"?>
<!-- Generator: Adobe Illustrator 26.0.1, SVG Export Plug-In . SVG Version: 6.00 Build 0)  -->
<svg version="1.1" id="Ebene_1" xmlns="http://www.w3.org/2000/svg" xmlns:xlink="http://www.w3.org/1999/xlink" x="0px" y="0px"
	 viewBox="0 0 8192 3373.7" style="enable-background:new 0 0 8192 3373.7;" xml:space="preserve">
<style type="text/css">
	.st0{clip-path:url(#SVGID_00000057841295690704539100000002671576140693668513_);}
	.st1{clip-path:url(#SVGID_00000052067645588420767370000016736635204277820831_);}
	.st2{clip-path:url(#SVGID_00000106838878489726160260000012405310929017516700_);}
	.st3{clip-path:url(#SVGID_00000030465337077193328780000015859505913556044980_);}
	.st4{clip-path:url(#SVGID_00000166674332142910295710000000655899069859770249_);}
	.st5{clip-path:url(#SVGID_00000131346423199460715870000000871711404607674031_);}
	.st6{clip-path:url(#SVGID_00000150061378424094855910000010903932424659767944_);}
	.st7{clip-path:url(#SVGID_00000071556584143493271380000004622971812835034759_);}
	.st8{clip-path:url(#SVGID_00000091709693682924471590000011383583616860801959_);}
	.st9{clip-path:url(#SVGID_00000150795395532125269340000008813565005680341936_);}
	.st10{fill:#FFFFFF;}
</style>
<g>
	<g>
		<g>
			<g>
				<defs>
					<path id="SVGID_00000046339233081115081260000008387244145127722115_" d="M35.6,1175.3c0,0,480.4,85.2,1070-307.9
						s1155.2-722.8,1812.5-738.1S4304.8,216.6,4964.3,684s1072.2,489.2,2009.1,543.8c936.8,54.6,1150.8,984.9,1150.8,984.9
						s-279.5-410.5-500.1-537.2s-301.4-155-428-181.2c-126.7-26.2-331.9-4.4-515.4,54.6c-183.4,59-360.3,181.3-613.6,126.7
						c-253.3-54.6-355.9-102.6-355.9-102.6s362.5,39.3,484.8,8.7s310.1-98.3,364.7-137.6c54.6-39.3,48-56.8,48-56.8
						s19.7-32.8-109.2-17.5c-128.8,15.3-380,41.5-860.4-85.2s-1202.6-722.4-2375.9-878c-790.5-104.8-1616,366.9-1616,366.9
						S893.8,1207,511.6,1227.7C144.7,1247.6,35.6,1175.3,35.6,1175.3z"/>
				</defs>
				
					<linearGradient id="SVGID_00000025432397264019744750000005767265230764829325_" gradientUnits="userSpaceOnUse" x1="35.6" y1="1170.2863" x2="8124.2002" y2="1170.2863">
					<stop  offset="0" style="stop-color:#02137C"/>
					<stop  offset="0.2626" style="stop-color:#1B359C"/>
					<stop  offset="0.4665" style="stop-color:#00137D"/>
					<stop  offset="0.5866" style="stop-color:#1B359C"/>
					<stop  offset="0.8799" style="stop-color:#00137D"/>
					<stop  offset="1" style="stop-color:#1B359C"/>
				</linearGradient>
				
					<use xlink:href="#SVGID_00000046339233081115081260000008387244145127722115_"  style="overflow:visible;fill:url(#SVGID_00000025432397264019744750000005767265230764829325_);"/>
				<clipPath id="SVGID_00000109744855590831107540000004727683514796052392_">
					<use xlink:href="#SVGID_00000046339233081115081260000008387244145127722115_"  style="overflow:visible;"/>
				</clipPath>
				<g style="clip-path:url(#SVGID_00000109744855590831107540000004727683514796052392_);">
					<g>
						<g>
							<defs>
								<rect id="SVGID_00000054974070381892601270000002503262564886142347_" x="30.6" y="122.9" width="8098.7" height="2094.7"/>
							</defs>
							
								<linearGradient id="SVGID_00000007398344838037152220000015744287466070356870_" gradientUnits="userSpaceOnUse" x1="30.6" y1="1170.2499" x2="8129.3003" y2="1170.2499">
								<stop  offset="0" style="stop-color:#02137C"/>
								<stop  offset="0.2626" style="stop-color:#1B359C"/>
								<stop  offset="0.4665" style="stop-color:#00137D"/>
								<stop  offset="0.5866" style="stop-color:#1B359C"/>
								<stop  offset="0.8799" style="stop-color:#00137D"/>
								<stop  offset="1" style="stop-color:#1B359C"/>
							</linearGradient>
							
								<use xlink:href="#SVGID_00000054974070381892601270000002503262564886142347_"  style="overflow:visible;fill:url(#SVGID_00000007398344838037152220000015744287466070356870_);"/>
							<clipPath id="SVGID_00000168116378902990358830000010378141680695132329_">
								<use xlink:href="#SVGID_00000054974070381892601270000002503262564886142347_"  style="overflow:visible;"/>
							</clipPath>
							<g style="clip-path:url(#SVGID_00000168116378902990358830000010378141680695132329_);">
							</g>
						</g>
					</g>
				</g>
			</g>
		</g>
	</g>
</g>
<g>
	<g>
		<g>
			<g>
				<defs>
					<polyline id="SVGID_00000121271704471782565350000012954267825643718819_" points="46.5,3033.9 46.5,3072.8 6560.2,3072.8 
						6560.2,3034.3 46.5,3033.9 					"/>
				</defs>
				
					<linearGradient id="SVGID_00000179641781119115639350000009730207132758479258_" gradientUnits="userSpaceOnUse" x1="46.5" y1="3053.3499" x2="6560.2002" y2="3053.3499">
					<stop  offset="0" style="stop-color:#02137C"/>
					<stop  offset="0.2626" style="stop-color:#1B359C"/>
					<stop  offset="0.4665" style="stop-color:#00137D"/>
					<stop  offset="0.5866" style="stop-color:#1B359C"/>
					<stop  offset="0.8799" style="stop-color:#00137D"/>
					<stop  offset="1" style="stop-color:#1B359C"/>
				</linearGradient>
				
					<use xlink:href="#SVGID_00000121271704471782565350000012954267825643718819_"  style="overflow:visible;fill:url(#SVGID_00000179641781119115639350000009730207132758479258_);"/>
				<clipPath id="SVGID_00000017491793115703465980000001007597088680918194_">
					<use xlink:href="#SVGID_00000121271704471782565350000012954267825643718819_"  style="overflow:visible;"/>
				</clipPath>
				<g style="clip-path:url(#SVGID_00000017491793115703465980000001007597088680918194_);">
					<g>
						<g>
							<defs>
								<rect id="SVGID_00000128460189088449291360000017955198183067774903_" x="41.5" y="3028.9" width="6523.7" height="49"/>
							</defs>
							
								<linearGradient id="SVGID_00000130639890065609920630000017998417604237650576_" gradientUnits="userSpaceOnUse" x1="41.5" y1="3053.3999" x2="6565.2002" y2="3053.3999">
								<stop  offset="0" style="stop-color:#02137C"/>
								<stop  offset="0.2626" style="stop-color:#1B359C"/>
								<stop  offset="0.4665" style="stop-color:#00137D"/>
								<stop  offset="0.5866" style="stop-color:#1B359C"/>
								<stop  offset="0.8799" style="stop-color:#00137D"/>
								<stop  offset="1" style="stop-color:#1B359C"/>
							</linearGradient>
							
								<use xlink:href="#SVGID_00000128460189088449291360000017955198183067774903_"  style="overflow:visible;fill:url(#SVGID_00000130639890065609920630000017998417604237650576_);"/>
							<clipPath id="SVGID_00000070821182532739286470000016788790482783616400_">
								<use xlink:href="#SVGID_00000128460189088449291360000017955198183067774903_"  style="overflow:visible;"/>
							</clipPath>
							<g style="clip-path:url(#SVGID_00000070821182532739286470000016788790482783616400_);">
							</g>
						</g>
					</g>
				</g>
			</g>
		</g>
	</g>
</g>
<g>
	<g>
		<g>
			<g>
				<defs>
					<polyline id="SVGID_00000145753190161328288290000002674334389287367556_" points="46.1,3093.7 46.1,3132.6 6559.8,3132.6 
						6559.8,3094.1 46.1,3093.6 					"/>
				</defs>
				
					<linearGradient id="SVGID_00000167375733905295112030000003697079865433915786_" gradientUnits="userSpaceOnUse" x1="46.1" y1="3113.1001" x2="6559.7998" y2="3113.1001">
					<stop  offset="0" style="stop-color:#02137C"/>
					<stop  offset="0.2626" style="stop-color:#1B359C"/>
					<stop  offset="0.4665" style="stop-color:#00137D"/>
					<stop  offset="0.5866" style="stop-color:#1B359C"/>
					<stop  offset="0.8799" style="stop-color:#00137D"/>
					<stop  offset="1" style="stop-color:#1B359C"/>
				</linearGradient>
				
					<use xlink:href="#SVGID_00000145753190161328288290000002674334389287367556_"  style="overflow:visible;fill:url(#SVGID_00000167375733905295112030000003697079865433915786_);"/>
				<clipPath id="SVGID_00000089531818845241681140000006080235314829506207_">
					<use xlink:href="#SVGID_00000145753190161328288290000002674334389287367556_"  style="overflow:visible;"/>
				</clipPath>
				<g style="clip-path:url(#SVGID_00000089531818845241681140000006080235314829506207_);">
					<g>
						<g>
							<defs>
								<rect id="SVGID_00000142899190417109488230000010056013977792619428_" x="41.1" y="3088.6" width="6523.7" height="49"/>
							</defs>
							
								<linearGradient id="SVGID_00000036962828782169768700000018126108480866864058_" gradientUnits="userSpaceOnUse" x1="41.1" y1="3113.1001" x2="6564.8003" y2="3113.1001">
								<stop  offset="0" style="stop-color:#02137C"/>
								<stop  offset="0.2626" style="stop-color:#1B359C"/>
								<stop  offset="0.4665" style="stop-color:#00137D"/>
								<stop  offset="0.5866" style="stop-color:#1B359C"/>
								<stop  offset="0.8799" style="stop-color:#00137D"/>
								<stop  offset="1" style="stop-color:#1B359C"/>
							</linearGradient>
							
								<use xlink:href="#SVGID_00000142899190417109488230000010056013977792619428_"  style="overflow:visible;fill:url(#SVGID_00000036962828782169768700000018126108480866864058_);"/>
							<clipPath id="SVGID_00000045615145840223998210000006270326595719013556_">
								<use xlink:href="#SVGID_00000142899190417109488230000010056013977792619428_"  style="overflow:visible;"/>
							</clipPath>
							<g style="clip-path:url(#SVGID_00000045615145840223998210000006270326595719013556_);">
							</g>
						</g>
					</g>
				</g>
			</g>
		</g>
	</g>
</g>
<g>
	<g>
		<g>
			<g>
				<defs>
					<polyline id="SVGID_00000073713850867614222090000000151244449040499594_" points="7655.8,3033.9 7655.8,3072.8 8129.3,3072.8 
						8129.3,3034.3 7655.8,3033.9 					"/>
				</defs>
				
					<linearGradient id="SVGID_00000170279342063624757040000017184137010834744234_" gradientUnits="userSpaceOnUse" x1="7655.8291" y1="3053.3499" x2="8129.3003" y2="3053.3499">
					<stop  offset="0" style="stop-color:#02137C"/>
					<stop  offset="0.5168" style="stop-color:#00137D"/>
					<stop  offset="1" style="stop-color:#1B359C"/>
				</linearGradient>
				
					<use xlink:href="#SVGID_00000073713850867614222090000000151244449040499594_"  style="overflow:visible;fill:url(#SVGID_00000170279342063624757040000017184137010834744234_);"/>
				<clipPath id="SVGID_00000177474992329902973530000009220499798718284971_">
					<use xlink:href="#SVGID_00000073713850867614222090000000151244449040499594_"  style="overflow:visible;"/>
				</clipPath>
				<g style="clip-path:url(#SVGID_00000177474992329902973530000009220499798718284971_);">
					<g>
						<g>
							<defs>
								<rect id="SVGID_00000083794168180396648440000002815235816725829307_" x="7655.5" y="3028.9" width="474.2" height="49"/>
							</defs>
							
								<linearGradient id="SVGID_00000178204590377441247580000009589574435631720320_" gradientUnits="userSpaceOnUse" x1="7655.4653" y1="3053.3999" x2="8129.6636" y2="3053.3999">
								<stop  offset="0" style="stop-color:#02137C"/>
								<stop  offset="0.5168" style="stop-color:#00137D"/>
								<stop  offset="1" style="stop-color:#1B359C"/>
							</linearGradient>
							
								<use xlink:href="#SVGID_00000083794168180396648440000002815235816725829307_"  style="overflow:visible;fill:url(#SVGID_00000178204590377441247580000009589574435631720320_);"/>
							<clipPath id="SVGID_00000149348463537650185910000008842953008471425207_">
								<use xlink:href="#SVGID_00000083794168180396648440000002815235816725829307_"  style="overflow:visible;"/>
							</clipPath>
							<g style="clip-path:url(#SVGID_00000149348463537650185910000008842953008471425207_);">
							</g>
						</g>
					</g>
				</g>
			</g>
		</g>
	</g>
</g>
<g>
	<g>
		<g>
			<g>
				<defs>
					<polyline id="SVGID_00000007407716800363522860000016361714546231285128_" points="7655.8,3093.7 7655.8,3132.6 8129.3,3132.6 
						8129.3,3094.1 7655.8,3093.6 					"/>
				</defs>
				
					<linearGradient id="SVGID_00000126318779891800669040000017533059506707260311_" gradientUnits="userSpaceOnUse" x1="7655.7998" y1="3113.1001" x2="8129.271" y2="3113.1001">
					<stop  offset="0" style="stop-color:#02137C"/>
					<stop  offset="0.5168" style="stop-color:#00137D"/>
					<stop  offset="1" style="stop-color:#1B359C"/>
				</linearGradient>
				
					<use xlink:href="#SVGID_00000007407716800363522860000016361714546231285128_"  style="overflow:visible;fill:url(#SVGID_00000126318779891800669040000017533059506707260311_);"/>
				<clipPath id="SVGID_00000084510568524366370970000011817569648579647620_">
					<use xlink:href="#SVGID_00000007407716800363522860000016361714546231285128_"  style="overflow:visible;"/>
				</clipPath>
				<g style="clip-path:url(#SVGID_00000084510568524366370970000011817569648579647620_);">
					<g>
						<g>
							<defs>
								<rect id="SVGID_00000170970374615373771600000000716869636626901385_" x="7655.4" y="3088.6" width="474.2" height="49"/>
							</defs>
							
								<linearGradient id="SVGID_00000112597031779424955260000012370548153592783774_" gradientUnits="userSpaceOnUse" x1="7655.4365" y1="3113.1001" x2="8129.6348" y2="3113.1001">
								<stop  offset="0" style="stop-color:#02137C"/>
								<stop  offset="0.5168" style="stop-color:#00137D"/>
								<stop  offset="1" style="stop-color:#1B359C"/>
							</linearGradient>
							
								<use xlink:href="#SVGID_00000170970374615373771600000000716869636626901385_"  style="overflow:visible;fill:url(#SVGID_00000112597031779424955260000012370548153592783774_);"/>
							<clipPath id="SVGID_00000173843916352059663020000001837080902337631635_">
								<use xlink:href="#SVGID_00000170970374615373771600000000716869636626901385_"  style="overflow:visible;"/>
							</clipPath>
							<g style="clip-path:url(#SVGID_00000173843916352059663020000001837080902337631635_);">
							</g>
						</g>
					</g>
				</g>
			</g>
		</g>
	</g>
</g>
<path class="st10" d="M6637.1,1891.6v1319c0,0,5.3,16.7,16,23.7c10.7,6.9,29.3,11.6,29.3,11.6h859.9c0,0,18-4.2,21.8-9.1
	c3.8-4.9,16.9-16.4,16.9-16.4v-671.5l-32.4,32.5v583.7c0,0-1.1,8.8-7.5,13.4c-6.4,4.5-8.8,5.2-8.8,5.2h-832.9c0,0-8.5-2.7-14.3-7.4
	c-5.8-4.6-7.4-7.8-7.4-7.8v-1143c0,0,4.4-5.6,7.9-9.3c3.5-3.7,7.2-7.1,7.2-7.1h837.5c0,0,19.2-1.7,19.2,14.7v113.4l30.8-30.8v-226.9
	c0,0,0-19.6-19.6-19.6h-173.9c0,0-7.7,0.7-7.7,7.7v45c0,0-28.5,54.2-77.5,54.2h-382.9c0,0-75.3-29.1-75.3-63.7v-42.6H6660
	c0,0-22.7,1.1-22.9,30.6V1891.6z"/>
<polyline class="st10" points="6899.1,2499.8 6735.4,2614.4 7168.8,2867.7 7844.7,2192.9 7676.6,2093.6 7129,2641.2 "/>
<path class="st10" d="M7296.3,1767h-115c0-0.2-14.2-50.8-77.5-50.8s-81.2,49.6-81.2,49.6h-106.4c0,0-31.3,8-31.3,38.8v95.8
	c0,0-0.7,31.3,31.2,31.3h369.5c0,0,34.1-6.2,34.1-34.3V1790C7319.8,1790,7315.5,1766.8,7296.3,1767z M7106.7,1727.5
	c29.8,0,43.7,13.1,50.1,25.3c6.9,13.1,3.6,29.3-7.9,38.6c-8.5,6.9-21.6,13.1-41.6,12.8c-21-0.4-56-1.6-56-38.5
	C7051.2,1765.7,7050.6,1727.5,7106.7,1727.5L7106.7,1727.5z M7275.1,1877.5h-338.7c0,0-20.5-3.3-20.5-20.5s21.6-22.5,21.6-22.5
	h338.7c0,0,22.5,0,22.5,19.4S7275.1,1877.5,7275.1,1877.5z"/>
<path class="st10" d="M512.3,1686.3v225h-17.7c-5.7-43.2-16.1-77.6-31-103.2s-36.1-45.9-63.6-60.9s-56-22.6-85.4-22.6
	c-33.3,0-60.8,10.2-82.5,30.5c-21.8,20.3-32.6,43.4-32.6,69.3c0,19.8,6.9,37.9,20.6,54.2c19.8,24,67,56,141.6,96
	c60.8,32.6,102.3,57.7,124.5,75.1c22.2,17.4,39.3,38,51.3,61.7c11.8,23,18,48.6,18,74.5c0,49.3-19.1,91.7-57.3,127.4
	s-87.4,53.5-147.6,53.4c-17.8,0.1-35.7-1.4-53.3-4.3c-9.9-1.6-30.5-7.5-61.7-17.5s-50.9-15.1-59.3-15.1c-8,0-14.3,2.4-19,7.2
	c-4.6,4.8-8.1,14.7-10.3,29.7h-17.8v-223.1H147c8.3,46.7,19.5,81.6,33.6,104.9c14.1,23.2,35.6,42.5,64.5,57.8
	c28.9,15.4,60.7,23,95.2,23c40,0,71.6-10.6,94.8-31.7c23.2-21.1,34.8-46.1,34.8-74.9c0-16-4.4-32.2-13.2-48.5
	c-8.8-16.3-22.5-31.5-41-45.6c-12.5-9.6-46.6-30-102.2-61.2c-55.7-31.2-95.2-56.1-118.8-74.6c-23.5-18.5-41.3-39-53.5-61.4
	s-18.2-47-18.2-73.9c0-46.7,17.9-86.9,53.7-120.7c35.8-33.8,81.4-50.6,136.8-50.6c34.5,0,71.2,8.5,109.9,25.4
	c17.9,8,30.5,12,37.9,12c8.3,0,15.1-2.5,20.4-7.4c5.3-5,9.5-15,12.7-30L512.3,1686.3z"/>
<path class="st10" d="M967.7,1686.3c84.5,0,157.6,32.1,219.5,96.2c61.9,64.1,92.8,144.2,92.8,240.2c0,98.9-31.2,180.9-93.6,246.2
	s-137.9,97.9-226.5,97.9c-89.6,0-164.8-31.8-225.7-95.5s-91.4-146-91.4-247.1c0-103.3,35.2-187.6,105.6-252.9
	C809.5,1714.6,882.6,1686.3,967.7,1686.3z M958.6,1721.3c-58.2,0-104.9,21.6-140.1,64.8c-43.8,53.7-65.7,132.4-65.7,236.1
	c0,106.2,22.7,187.9,68.1,245.2c34.9,43.5,80.9,65.2,138.2,65.3c61.1,0,111.6-23.8,151.4-71.5s59.7-122.8,59.7-225.5
	c0-111.3-21.9-194.3-65.7-249C1069.2,1743.1,1020.6,1721.3,958.6,1721.3z"/>
<path class="st10" d="M1786.8,1718.9v-17.7h230.3v17.7h-24.5c-25.6,0-45.3,10.7-59,32.1c-6.7,9.9-10.1,33-10.1,69.1V2084
	c0,65.3-6.5,115.9-19.4,151.9c-13,36-38.4,66.9-76.3,92.6c-37.9,25.7-89.5,38.6-154.8,38.6c-71,0-124.9-12.3-161.7-36.9
	c-36.8-24.6-62.9-57.7-78.2-99.3c-10.2-28.5-15.4-81.9-15.4-160.3v-254.3c0-40-5.5-66.2-16.6-78.7c-11-12.5-28.9-18.7-53.5-18.7
	h-24.5v-17.7h281.2v17.7h-24.9c-26.9,0-46.1,8.5-57.6,25.4c-8,11.5-12,35.5-12,72v283.5c0,25.3,2.3,54.2,7,86.8
	c4.6,32.6,13,58.1,25.2,76.3s29.7,33.3,52.5,45.1c22.9,11.8,50.9,17.8,84.2,17.7c42.5,0,80.6-9.3,114.2-27.8s56.5-42.3,68.8-71.2
	s18.4-78,18.4-147.1v-263.4c0-40.6-4.5-66.1-13.4-76.3c-12.5-14.1-31-21.1-55.7-21.1L1786.8,1718.9z"/>
<path class="st10" d="M2591,2171.9l15.8,3.4l-55.7,176.6h-503.8V2334h24.5c27.5,0,47.2-9,59-26.9c6.7-10.2,10.1-33.9,10.1-71v-419.9
	c0-40.6-4.5-66.1-13.4-76.3c-12.5-14.1-31-21.1-55.7-21.1h-24.5v-17.7h294.6v17.7c-34.5-0.3-58.8,2.9-72.7,9.6s-23.4,15.2-28.6,25.4
	c-5.1,10.2-7.7,34.7-7.7,73.4v408.9c0,26.5,2.6,44.8,7.7,54.7c4,6.9,10.3,12.1,17.8,14.9c8,3.2,32.9,4.8,74.8,4.8h47.5
	c49.9,0,84.9-3.7,105.1-11.1c20.2-7.4,38.5-20.4,55.2-39.1C2557.7,2241.7,2574.3,2212.2,2591,2171.9z"/>
<path class="st10" d="M2833.3,1736.6v257.2h143c37.1,0,61.9-5.6,74.4-16.8c16.6-14.7,25.9-40.7,27.8-77.7h17.8v226.5h-17.8
	c-4.5-31.7-9-52-13.4-60.9c-5.7-11.2-15.1-20-28.3-26.4c-13.1-6.4-33.3-9.6-60.5-9.6h-143.1v214.5c0,28.8,1.3,46.3,3.8,52.5
	c2.6,6.3,7.4,11.6,13.4,14.9c6.4,3.7,18.5,5.5,36.5,5.5h110.4c36.8,0,63.5-2.6,80.1-7.7c16.6-5.1,32.6-15.2,48-30.2
	c19.8-19.8,40.1-49.7,60.9-89.7h19.2l-56.1,163.2H2648V2334h23c15.3,0,30.3-3.8,43.7-11.1c10.2-5.1,17.2-12.8,20.9-23
	s5.5-31.2,5.5-62.9v-422.7c0-41.3-4.2-66.7-12.5-76.3c-11.5-12.8-30.7-19.2-57.6-19.2h-23v-17.7h501.4l7.2,142.5H3138
	c-6.7-34.2-14.2-57.7-22.3-70.5c-8.2-12.8-20.2-22.6-36.2-29.3c-12.8-4.8-35.4-7.2-67.7-7.2L2833.3,1736.6z"/>
<path class="st10" d="M3531.4,2334v17.8h-278.8V2334h23c26.9,0,46.4-7.8,58.5-23.5c7.7-10.2,11.5-34.9,11.5-73.9v-420.3
	c0-32.9-2.1-54.7-6.2-65.3c-3.2-8-9.7-14.9-19.7-20.6c-13.5-7.5-28.7-11.5-44.1-11.5h-23v-17.7h278.8v17.7H3508
	c-26.6,0-45.9,7.8-58.1,23.5c-8,10.2-12,34.9-12,73.9v420.3c0,32.9,2.1,54.7,6.2,65.3c3.2,8,9.9,14.9,20.2,20.6
	c13.3,7.6,28.4,11.5,43.7,11.5L3531.4,2334z"/>
<path class="st10" d="M3957.5,2351.8l-251.4-547.5V2239c0,40,4.3,64.9,13,74.9c11.8,13.4,30.5,20.1,56.1,20.1h23v17.8h-226.5V2334
	h23c27.5,0,47-8.3,58.5-24.9c7-10.2,10.6-33.6,10.6-70v-425.2c0-28.8-3.2-49.6-9.6-62.4c-4.5-9.3-12.7-17-24.7-23.3
	c-12-6.2-31.3-9.4-57.8-9.4v-17.7H3756l236.1,509.1l232.2-509.1h184.3v17.7H4386c-27.8,0-47.5,8.3-59,24.9
	c-7,10.2-10.6,33.6-10.6,70V2239c0,40,4.5,64.9,13.4,74.9c11.8,13.4,30.5,20.1,56.1,20.1h22.6v17.8h-276.4V2334h23
	c27.8,0,47.4-8.3,58.5-24.9c7-10.2,10.6-33.6,10.6-70v-434.7l-251,547.5L3957.5,2351.8z"/>
<path class="st10" d="M4878.8,2133.9h-251.9l-44.1,102.7c-10.9,25.3-16.3,44.1-16.3,56.6c0,9.9,4.7,18.6,14.2,26.2
	c9.4,7.5,29.8,12.4,61.2,14.6v17.8H4437V2334c27.2-4.8,44.8-11,52.8-18.7c16.3-15.4,34.4-46.5,54.2-93.6l228.9-535.5h16.8
	l226.5,541.2c18.2,43.5,34.8,71.8,49.7,84.8c14.9,13,35.6,20.3,62.1,21.8v17.8h-256.7V2334c25.9-1.3,43.4-5.6,52.5-12.9
	c9.1-7.4,13.7-16.3,13.7-26.9c0-14.1-6.4-36.3-19.2-66.7L4878.8,2133.9z M4865.4,2098.4l-110.4-263l-113.2,263H4865.4z"/>
<path class="st10" d="M5125.9,1701.1h176.6l397.8,488v-375.2c0-40-4.5-64.9-13.4-74.9c-11.8-13.4-30.6-20.2-56.1-20.2h-22.6v-17.7
	h226.5v17.7h-23c-27.5,0-47,8.3-58.5,24.9c-7,10.2-10.6,33.6-10.6,70v548.5h-17.3l-429-524V2239c0,40,4.3,64.9,13,74.9
	c12.2,13.4,30.9,20.1,56.1,20.1h23v17.8h-226.5V2334h22.6c27.8,0,47.5-8.3,59-24.9c7-10.2,10.6-33.6,10.6-70v-452.5
	c-18.9-22.1-33.2-36.7-43-43.7s-24.1-13.6-43-19.7c-9.3-2.9-23.4-4.3-42.2-4.3V1701.1z"/>
<path class="st10" d="M186.6,2699.6l102,101.4c16.7,16.7,31,28.1,42.8,34.2c11,5.8,23.1,9.3,35.5,10.3v7.6H235.3v-7.6
	c7.9,0,13.6-1.3,17-4c3.5-2.6,5.2-5.6,5.2-8.9c0-3-0.6-6-1.9-8.8c-1.3-2.6-5.5-7.4-12.7-14.5l-95.4-94.4v89.1
	c0,14,0.9,23.2,2.7,27.7c1.4,3.4,4.2,6.3,8.6,8.8c5.7,3.2,12.1,4.9,18.6,4.9h9.4v7.6H68.7v-7.6h9.8c11.4,0,19.7-3.3,24.9-10
	c3.3-4.3,4.9-14.8,4.9-31.4v-178.7c0-14-0.9-23.3-2.7-27.9c-1.4-3.3-4.1-6.1-8.4-8.6c-5.7-3.2-12.2-4.9-18.8-4.9h-9.8v-7.5h117.9
	v7.5h-9.4c-6.5,0-12.9,1.7-18.6,4.7c-4.1,2-7.2,5.5-8.8,9.8s-2.5,13.3-2.5,26.9v84.6c2.7-2.6,12-11.2,27.9-25.9
	c40.4-37,64.8-61.6,73.2-74c3.7-5.4,5.5-10.2,5.5-14.3c-0.1-3.3-1.6-6.3-4.3-8.3c-2.8-2.4-7.7-3.6-14.5-3.6h-6v-7.6h101.5v7.5
	c-5.5,0.1-11,0.9-16.3,2.5c-6.3,2.2-12.3,5.1-17.9,8.7c-7.1,4.3-15.8,11.2-26.1,20.7c-3,2.7-16.8,16.6-41.4,41.8L186.6,2699.6z"/>
<path class="st10" d="M532.9,2680.9v122.8c0,17.4,1.9,28.4,5.7,33c5,6,11.7,9,20.2,9h17v7.4H464.2v-7.4h8.4c5.2,0,10.4-1.4,14.9-4.1
	c4.3-2.5,7.6-6.4,9.3-11.1c1.7-4.6,2.6-13.6,2.6-26.9v-122.7H463v-14.7h36.3v-12.3c0-18.6,3-34.4,9-47.3
	c5.9-12.9,15.5-23.7,27.4-31.3c12.4-8,26.8-12.1,41.5-11.9c14.3,0,27.4,4.6,39.3,13.9c7.9,6.1,11.8,13,11.8,20.6
	c0,4.1-1.8,7.9-5.3,11.5s-7.3,5.4-11.4,5.4c-3.5-0.1-6.9-1.3-9.8-3.4c-3.5-2.2-7.7-7.1-12.8-14.5c-5-7.4-9.7-12.4-13.9-15
	s-9.1-3.9-14.1-3.9c-5.7-0.2-11.4,1.6-16,5c-4.3,3.3-7.5,8.5-9.4,15.5s-2.9,25.1-2.8,54.2v13.5H581v14.6L532.9,2680.9L532.9,2680.9z
	"/>
<path class="st10" d="M844.9,2795.7l-2.2,57.3H677.9v-7.4L802,2680.4h-61.2c-13.2,0-21.8,0.8-25.9,2.5c-4.4,2-7.9,5.4-10,9.7
	c-3.7,6.8-5.8,15.2-6.3,25.3h-8.2l1.2-51.8h156.6v7.5L723,2839.2h68.1c14.3,0,24-1.2,29.1-3.6c5.1-2.4,9.2-6.6,12.3-12.5
	c2.2-4.3,4-13.5,5.5-27.5L844.9,2795.7z"/>
<path class="st10" d="M955.3,2743.9h105.4v30.8H955.3V2743.9z"/>
<path class="st10" d="M1352.5,2570.1v95.6h-7.5c-2.5-18.4-6.8-33-13.2-43.8c-6.4-11-15.8-19.9-27-25.9c-11.1-6.2-23.6-9.5-36.3-9.6
	c-14.2,0-25.8,4.3-35.1,13c-9.2,8.6-13.9,18.5-13.9,29.5c0,8.5,3.1,16.7,8.8,23c8.4,10.2,28.5,23.8,60.2,40.8
	c25.8,13.9,43.5,24.5,52.9,31.9c9.1,7,16.6,16,21.8,26.2c5,9.8,7.7,20.6,7.7,31.6c0,20.9-8.1,39-24.4,54.1
	c-16.2,15.1-37.1,22.7-62.6,22.7c-7.6,0-15.2-0.6-22.6-1.8c-4.2-0.7-12.9-3.2-26.2-7.4c-13.3-4.3-21.7-6.4-25.2-6.4
	c-3-0.2-5.9,1-8,3.1c-2,2-3.4,6.3-4.4,12.6h-7.6v-94.8h7.6c3.5,19.9,8.3,34.7,14.3,44.6c6,9.9,15.1,18,27.4,24.6
	c12.5,6.6,26.4,10,40.5,9.8c17,0,30.4-4.5,40.3-13.5s14.8-19.6,14.7-31.8c-0.1-7.2-2-14.3-5.6-20.6c-3.8-6.9-9.6-13.4-17.4-19.4
	c-5.3-4.1-19.8-12.8-43.4-26c-23.7-13.2-40.5-23.8-50.5-31.7c-9.3-7.1-17-15.9-22.7-26.1c-5.2-9.6-7.9-20.5-7.7-31.4
	c0-19.9,7.6-36.9,22.8-51.3c15.2-14.3,34.6-21.5,58.1-21.5c14.7,0,30.3,3.6,46.7,10.8c7.6,3.4,13,5.1,16.1,5.1
	c3.2,0.1,6.3-1,8.6-3.2c2.2-2.1,4-6.4,5.4-12.8L1352.5,2570.1z"/>
<path class="st10" d="M1595.7,2826c-19.2,14.8-31.2,23.4-36.1,25.7c-7.3,3.4-15.4,5.1-23.4,5.1c-12.9,0-23.6-4.4-31.9-13.3
	c-8.4-8.8-12.5-20.5-12.5-34.9c-0.2-8.3,1.9-16.5,6.1-23.7c5.6-9.2,15.2-17.9,29.1-26.1c13.8-8.2,36.7-18.1,68.8-29.8v-7.4
	c0-18.6-3-31.4-8.9-38.3c-5.9-6.9-14.5-10.4-25.8-10.4c-8.6,0-15.4,2.3-20.4,6.9c-5.2,4.6-7.8,9.9-7.8,15.9l0.4,11.8
	c0,6.2-1.6,11.1-4.8,14.5c-3.3,3.4-7.8,5.3-12.5,5.1c-4.7,0.1-9.2-1.8-12.3-5.3c-3.2-3.5-4.8-8.3-4.8-14.5c0-11.7,6-22.4,17.9-32.2
	c12-9.8,28.8-14.7,50.4-14.7c16.6,0,30.2,2.8,40.8,8.4c8.1,4.3,14.4,11.3,17.7,19.8c2.5,5.8,3.7,17.8,3.7,35.9v63.4
	c0,17.8,0.3,28.7,1,32.7s1.8,6.7,3.4,8.1c1.5,1.3,3.4,2.1,5.4,2c2,0,4-0.5,5.7-1.4c2.9-1.8,8.4-6.7,16.5-14.9v11.4
	c-15.2,20.4-29.8,30.6-43.6,30.6c-6.7,0-12-2.3-16-6.9C1597.8,2845,1595.8,2837.1,1595.7,2826z M1595.7,2812.8v-71.2
	c-20.5,8.2-33.8,14-39.8,17.3c-10.7,6-18.4,12.2-23,18.8c-4.5,6.2-6.9,13.7-6.9,21.4c0,9.8,2.9,18,8.8,24.4s12.6,9.6,20.2,9.7
	C1565.3,2833.2,1578.9,2826.4,1595.7,2812.8z"/>
<path class="st10" d="M1917.4,2782c-5,24.6-14.9,43.5-29.6,56.8c-14.7,13.2-30.9,19.9-48.7,19.9c-21.2,0-39.7-8.9-55.5-26.7
	s-23.6-41.9-23.6-72.2c0-29.4,8.7-53.2,26.2-71.6s38.4-27.5,62.9-27.5c18.4,0,33.4,4.9,45.3,14.6c11.8,9.7,17.7,19.8,17.7,30.3
	c0.2,4.7-1.6,9.3-5,12.5c-3.3,3.2-8,4.8-14,4.8c-8,0-14.1-2.6-18.1-7.8c-2.3-2.9-3.8-8.3-4.6-16.3c-0.8-8-3.5-14.1-8.3-18.4
	c-4.8-4.1-11.4-6.1-19.8-6.1c-13.6,0-24.5,5-32.8,15.1c-11,13.3-16.5,30.9-16.5,52.8c0,22.3,5.5,42,16.4,59
	c10.9,17.1,25.7,25.6,44.3,25.6c13.3,0,25.3-4.6,35.9-13.7c7.5-6.3,14.8-17.6,21.8-34.1L1917.4,2782z"/>
<path class="st10" d="M2082.5,2562.9v136.6c15.1-16.6,27-27.2,35.9-31.9c8.1-4.5,17.2-6.9,26.5-7c10.6,0,19.7,2.9,27.3,8.8
	c7.6,5.8,13.2,15,16.9,27.5c2.6,8.7,3.9,24.6,3.9,47.7v66.1c0,11.8,0.9,19.9,2.8,24.3c1.4,3.3,3.8,6,6.9,7.7
	c3.3,1.9,9.3,2.9,17.9,2.9v7.4H2129v-7.4h4.3c8.7,0,14.8-1.3,18.2-4c3.6-3,6.1-7.1,7.1-11.7c0.4-2.2,0.6-8.6,0.6-19.2v-66
	c0-20.4-1.1-33.8-3.2-40.2c-2.1-6.4-5.5-11.2-10.1-14.4c-4.9-3.3-10.8-5-16.7-4.8c-7.2,0.1-14.4,2-20.8,5.3
	c-7.2,3.5-15.8,10.7-25.9,21.4v98.7c0,12.8,0.7,20.7,2.1,23.9c1.7,3.4,4.5,6.2,7.9,7.9c3.9,2.1,10.6,3.2,20.1,3.2v7.4H2020v-7.4
	c8.3,0,14.8-1.3,19.6-3.9c2.7-1.4,4.9-3.9,6.5-7.7s2.4-11.6,2.5-23.3v-169.1c0-21.3-0.5-34.4-1.5-39.3c-1-4.9-2.6-8.2-4.7-10
	c-2.4-1.9-5.4-2.8-8.5-2.7c-2.9,0-7.5,1.1-13.9,3.3l-2.9-7.1l55.9-22.8L2082.5,2562.9z"/>
<path class="st10" d="M2310.4,2666.1h87.9v7.5h-5.7c-5.3,0-9.4,1.3-12.1,3.9c-2.8,2.7-4.4,6.5-4.2,10.4c0,4.7,1.4,10.4,4.3,16.9
	L2424,2808l43.6-107.1c3.1-7.6,4.7-13.4,4.7-17.3c0.1-1.7-0.5-3.4-1.6-4.7c-1.4-2-3.4-3.4-5.7-4.2c-2.3-0.7-7-1.1-14.1-1.1v-7.5h61
	v7.5c-7.1,0.5-12,2-14.7,4.3c-4.8,4.1-9,10.9-12.8,20.4l-66.3,160.3h-8.4L2343,2701c-3-7.4-5.9-12.6-8.6-15.8
	c-2.9-3.3-6.4-6.1-10.4-8.1c-2.3-1.2-6.9-2.4-13.7-3.5L2310.4,2666.1z"/>
<path class="st10" d="M2643.8,2736.5c-0.1,27.7,6.6,49.5,20.2,65.3c13.6,15.8,29.6,23.7,47.9,23.6c12.3,0,22.9-3.4,31.9-10.1
	c9-6.7,16.6-18.2,22.7-34.6l6.3,4.1c-2.8,18.6-11.1,35.6-24.9,50.9c-13.7,15.3-30.9,22.9-51.6,22.9c-22.4,0-41.6-8.7-57.6-26.2
	s-24-41-24-70.5c0-31.9,8.2-56.8,24.6-74.7s36.9-26.8,61.7-26.8c20.9,0,38.1,6.9,51.6,20.7s20.2,32.3,20.2,55.4L2643.8,2736.5z
	 M2643.8,2724.7h86.5c-0.7-12-2.1-20.4-4.3-25.3c-3.2-7.4-8.5-13.6-15.2-17.9c-6.2-4.2-13.6-6.5-21.1-6.5
	c-11.3,0-21.4,4.4-30.3,13.2C2650.5,2696.9,2645.3,2709.1,2643.8,2724.7L2643.8,2724.7z"/>
<path class="st10" d="M2935.9,2660.7v42c15.6-28,31.7-42,48.1-42c6.8-0.2,13.5,2.2,18.6,6.8c4.9,4.6,7.4,9.8,7.4,15.8
	c0.1,5-1.8,9.9-5.3,13.5c-3.2,3.5-7.8,5.5-12.7,5.5c-4.7,0-10.1-2.3-16-7s-10.3-7-13.2-7c-2.5,0-5.1,1.4-7.9,4.1
	c-6.1,5.6-12.4,14.7-19,27.5v89.5c0,10.3,1.3,18.1,3.9,23.4c2.1,4,5.4,7.2,9.4,9.2c4.5,2.5,10.9,3.7,19.4,3.7v7.4H2873v-7.4
	c9.5,0,16.6-1.5,21.2-4.5c3.6-2.5,6.1-6.2,7.1-10.4c0.7-2.3,1-8.9,1-19.8v-72.4c0-21.8-0.4-34.7-1.3-38.9c-0.9-4.2-2.5-7.2-4.9-9.1
	c-2.5-2-5.7-3-8.9-2.9c-4.9,0.1-9.7,1.2-14.3,3.1l-2-7.4l56.5-22.8L2935.9,2660.7L2935.9,2660.7z"/>
<path class="st10" d="M3224.6,2660.7v63.6h-6.7c-5.2-20-11.8-33.6-19.9-40.8c-8.1-7.2-18.4-10.8-30.9-10.8c-9.5,0-17.2,2.5-23,7.5
	c-5.9,5-8.8,10.6-8.8,16.7c-0.2,7.1,2.1,14,6.5,19.6c4.2,5.6,12.8,11.5,25.7,17.7l29.8,14.5c27.6,13.5,41.4,31.2,41.4,53.2
	c0,17-6.4,30.7-19.3,41.1c-12.1,10.1-27.4,15.7-43.1,15.6c-11.5,0-24.5-2-39.2-6.1c-3.6-1.2-7.3-1.9-11.1-2c-3.1,0-5.6,1.8-7.4,5.3
	h-6.7v-66.7h6.7c3.8,19,11.1,33.4,21.8,43s22.8,14.4,36.1,14.5c9.4,0,17-2.8,22.9-8.3c5.7-5,8.9-12.3,8.9-19.9
	c0.2-8.9-3.4-17.5-9.9-23.7c-6.6-6.4-19.8-14.5-39.5-24.3s-32.6-18.6-38.7-26.5c-6.1-7.8-9.2-17.5-9.2-29.4
	c0-15.4,5.3-28.2,15.8-38.5s24.2-15.5,40.9-15.5c7.4,0,16.3,1.6,26.7,4.7c6.9,2,11.6,3.1,13.9,3.1c1.8,0.1,3.6-0.4,5.1-1.4
	c1.2-0.9,2.6-3.1,4.3-6.3L3224.6,2660.7z"/>
<path class="st10" d="M3404.2,2604.8v61.4h43.6v14.3h-43.6v121.1c0,12.1,1.7,20.3,5.2,24.5c3.2,4.1,8.2,6.4,13.4,6.3
	c4.7-0.1,9.2-1.5,13.1-4.2c4.4-3,7.8-7.3,9.8-12.3h7.9c-4.8,13.3-11.5,23.4-20.2,30.1c-8.7,6.7-17.7,10.1-26.9,10.1
	c-6.5-0.1-12.8-1.9-18.4-5.2c-5.9-3.4-10.6-8.6-13.3-14.9c-2.9-6.4-4.3-16.4-4.3-29.9v-125.7H3341v-6.7c7.5-3,15.1-8.1,22.9-15.2
	c8.1-7.5,15.1-16,20.9-25.4c3.1-5.2,7.5-14.6,13.1-28.4L3404.2,2604.8z"/>
<path class="st10" d="M3655.4,2826c-19.2,14.8-31.2,23.4-36.1,25.7c-7.3,3.4-15.4,5.1-23.4,5.1c-12.9,0-23.6-4.4-31.9-13.3
	c-8.4-8.8-12.6-20.5-12.5-34.9c-0.2-8.3,1.9-16.5,6.1-23.7c5.6-9.2,15.3-17.9,29.1-26.1c13.8-8.2,36.7-18.1,68.8-29.8v-7.4
	c0-18.6-3-31.4-8.9-38.3c-5.9-6.9-14.5-10.4-25.8-10.4c-8.6,0-15.4,2.3-20.4,6.9c-5.2,4.6-7.7,9.9-7.7,15.9l0.4,11.8
	c0,6.2-1.6,11.1-4.8,14.5c-3.3,3.4-7.8,5.3-12.5,5.1c-4.7,0.1-9.2-1.8-12.3-5.3c-3.2-3.5-4.8-8.3-4.8-14.5c0-11.7,6-22.4,17.9-32.2
	s28.8-14.7,50.4-14.7c16.6,0,30.2,2.8,40.8,8.4c8.1,4.3,14.4,11.3,17.7,19.8c2.5,5.8,3.7,17.8,3.7,35.9v63.4c0,17.8,0.3,28.7,1,32.7
	s1.8,6.7,3.4,8.1c1.5,1.3,3.4,2.1,5.4,2c2,0.1,4-0.4,5.8-1.4c2.8-1.8,8.4-6.7,16.5-14.9v11.4c-15.2,20.4-29.8,30.6-43.6,30.6
	c-6.7,0-12-2.3-15.9-6.9C3657.6,2845.1,3655.5,2837.2,3655.4,2826z M3593.8,2580.3c6-0.1,11.7,2.2,15.8,6.5
	c4.2,4.1,6.5,9.8,6.4,15.7c0.1,5.9-2.3,11.5-6.5,15.6c-8.6,8.6-22.6,8.6-31.2,0c-4.3-4.1-6.6-9.7-6.5-15.6
	c-0.1-5.9,2.2-11.6,6.4-15.7C3582.2,2582.6,3587.9,2580.2,3593.8,2580.3z M3655.4,2812.8v-71.2c-20.5,8.2-33.8,14-39.8,17.3
	c-10.7,6-18.4,12.2-23,18.8c-4.5,6.2-7,13.7-6.9,21.4c0,9.8,2.9,18,8.8,24.4c5.8,6.4,12.6,9.6,20.2,9.7
	C3624.9,2833.2,3638.5,2826.4,3655.4,2812.8z M3665.8,2580.3c5.9-0.1,11.5,2.3,15.6,6.5c4.2,4.1,6.5,9.8,6.4,15.7
	c0,12.1-9.7,22-21.9,22c-0.1,0-0.1,0-0.2,0c-5.9,0.1-11.6-2.2-15.7-6.4c-4.3-4.1-6.6-9.7-6.5-15.6
	C3643.6,2590.3,3653.5,2580.3,3665.8,2580.3z"/>
<path class="st10" d="M3872.8,2700.2c21.9-26.4,42.8-39.6,62.6-39.6c10.2,0,19,2.6,26.3,7.7c7.3,5.1,13.2,13.5,17.5,25.2
	c3,8.2,4.5,20.7,4.5,37.5v79.7c0,11.8,1,19.9,2.9,24.1c1.5,3.4,4,6.2,7.2,7.9c3.3,1.9,9.5,2.9,18.4,2.9v7.4H3920v-7.4h3.9
	c8.7,0,14.8-1.3,18.2-4c3.7-3,6.2-7.1,7.2-11.7c0.5-2,0.8-8.4,0.8-19.2v-76.5c0-17-2.2-29.3-6.6-37c-4.4-7.7-11.9-11.5-22.3-11.5
	c-16.2,0-32.3,8.8-48.3,26.5v98.5c0,12.6,0.7,20.5,2.2,23.4c1.6,3.6,4.4,6.7,7.8,8.7c3.3,1.8,10.1,2.8,20.3,2.8v7.4h-92.4v-7.4h4.1
	c9.5,0,15.9-2.4,19.3-7.2c3.3-4.8,5-14,5-27.6v-69.3c0-22.4-0.5-36.1-1.5-41s-2.6-8.2-4.7-10c-2.4-1.9-5.4-2.8-8.5-2.7
	c-4.7,0.2-9.3,1.2-13.7,3.1l-3.1-7.4l56.3-22.8h8.8V2700.2z"/>
<path class="st10" d="M4242.7,2832c-9.1,9.5-18,16.3-26.7,20.5c-8.8,4.2-18.4,6.3-28.1,6.2c-20.4,0-38.2-8.5-53.4-25.6
	c-15.2-17.1-22.8-39-22.8-65.8s8.4-51.3,25.3-73.5s38.5-33.3,65-33.3c16.5,0,30,5.2,40.8,15.7v-34.5c0-21.3-0.5-34.4-1.5-39.3
	c-1-4.9-2.6-8.2-4.8-10c-2.3-1.8-5.2-2.8-8.2-2.7c-3.5,0-8.2,1.1-14.1,3.3l-2.6-7.1l55.6-22.9h9.2v216c0,21.9,0.5,35.2,1.5,40.1
	c1,4.8,2.7,8.2,4.9,10.1c2.2,1.9,5,2.9,7.8,2.9c3.7,0,8.6-1.2,14.7-3.5l2.2,7.1l-55.5,23h-9.4L4242.7,2832z M4242.7,2817.7v-96.3
	c-0.7-8.8-3.2-17.5-7.4-25.3c-3.7-7.2-9.3-13.1-16.2-17.2c-5.9-3.6-12.7-5.6-19.7-5.8c-12,0-22.6,5.4-32,16.1
	c-12.4,14.2-18.6,34.8-18.6,62c0,27.5,6,48.5,17.9,63.1s25.3,21.9,40,21.9C4219.2,2836.2,4231.2,2830.1,4242.7,2817.7L4242.7,2817.7
	z"/>
<path class="st10" d="M4467.6,2660.7v150.1c0,11.7,0.8,19.5,2.5,23.3c1.5,3.6,4.1,6.7,7.5,8.7c3.3,1.9,9.4,2.9,18.3,2.9v7.4h-90.8
	v-7.4c9.1,0,15.2-0.9,18.4-2.7c3.4-2,6-5.1,7.4-8.8c1.8-4.1,2.8-11.9,2.8-23.4v-72c0-20.3-0.6-33.4-1.8-39.3
	c-0.9-4.4-2.4-7.4-4.5-9.1c-2.4-1.8-5.4-2.7-8.4-2.6c-4.8,0.2-9.5,1.2-13.9,3.1l-2.9-7.4l56.3-22.8H4467.6z M4450.6,2562.9
	c11.3,0,20.6,9.1,20.6,20.5v0.1c0.1,5.5-2.1,10.8-6,14.7c-3.8,4-9.1,6.2-14.6,6.1c-11.5,0-20.8-9.3-20.8-20.8
	c-0.1-5.5,2.1-10.8,6-14.6C4439.7,2565,4445.1,2562.8,4450.6,2562.9z"/>
<path class="st10" d="M4652.6,2784.9c-21.9-10.2-35.8-32.3-35.5-56.5c0-18.5,7-34.4,20.9-47.7s31.8-20,53.5-20
	c17.8,0,33.2,4.4,46.3,13.1h39.6c5.8,0,9.2,0.2,10.2,0.5c0.9,0.3,1.6,0.9,2,1.7c0.8,1.2,1.2,3.4,1.2,6.5c0,3.5-0.3,6-1,7.4
	c-0.5,0.8-1.3,1.3-2.1,1.6c-1,0.4-4.5,0.6-10.3,0.6h-24.3c7.6,9.8,11.4,22.3,11.4,37.5c0,17.4-6.7,32.3-20,44.7
	s-31.2,18.6-53.6,18.5c-9.6,0-19.1-1.4-28.3-4.1c-6,5.2-10,9.7-12.1,13.5c-2.1,3.9-3.2,7.2-3.2,9.9c0.1,2.6,1.4,5,3.4,6.7
	c2.3,2.2,6.6,3.7,13.2,4.7c3.8,0.5,13.3,1,28.5,1.4c28,0.7,46.2,1.6,54.5,2.9c12.6,1.8,22.7,6.4,30.3,14.1
	c7.5,7.4,11.6,17.6,11.3,28.1c0,15.4-7.2,29.8-21.6,43.2c-21.2,19.8-48.9,29.8-83,29.8c-26.2,0-48.4-5.9-66.5-17.7
	c-10.2-6.8-15.3-13.9-15.3-21.2c0-3.4,0.8-6.8,2.2-9.8c2.3-5,7.1-12,14.3-21c0.9-1.2,7.9-8.6,20.8-22c-7.1-4.2-12.1-8-15-11.3
	c-2.8-3.1-4.4-7.1-4.4-11.3c0-4.7,1.9-10.3,5.8-16.7C4629.7,2805.5,4638.6,2796.5,4652.6,2784.9z M4650.6,2853
	c-5.6,5.9-10.5,12.4-14.5,19.4c-3.3,6-4.9,11.5-4.9,16.5c0,6.6,3.9,12.3,11.8,17.1c13.6,8.4,33.2,12.6,59,12.6
	c24.5,0,42.5-4.3,54.1-12.9c11.6-8.6,17.4-17.8,17.4-27.6c0-7.1-3.5-12.1-10.4-15.1c-7.1-3-21.1-4.8-42-5.3
	C4690.6,2856.8,4667.1,2855.3,4650.6,2853L4650.6,2853z M4688.1,2670.5c-10.1,0-18.5,4-25.3,12s-10.2,20.3-10.2,36.9
	c0,21.5,4.6,38.1,13.9,50c7.1,9,16,13.5,26.9,13.5c9.8,0.2,19.2-4.1,25.5-11.6c6.7-7.8,10-19.9,10-36.5c0-21.6-4.7-38.5-14.1-50.8
	C4707.9,2674.9,4699,2670.5,4688.1,2670.5L4688.1,2670.5z"/>
<path class="st10" d="M4926.4,2736.5c-0.1,27.7,6.6,49.5,20.2,65.3s29.6,23.7,47.9,23.6c12.2,0,22.9-3.4,31.9-10.1
	c9.1-6.7,16.6-18.2,22.7-34.6l6.3,4.1c-2.8,18.6-11.1,35.6-24.9,50.9c-13.7,15.3-30.9,22.9-51.6,22.9c-22.4,0-41.7-8.7-57.6-26.2
	c-16-17.5-23.9-41-24-70.5c0-31.9,8.2-56.8,24.6-74.7s36.9-26.8,61.7-26.8c20.9,0,38.1,6.9,51.6,20.7s20.2,32.3,20.2,55.4
	L4926.4,2736.5z M4926.4,2724.7h86.5c-0.7-12-2.1-20.4-4.3-25.3c-3.2-7.4-8.5-13.6-15.2-17.9c-6.2-4.2-13.6-6.5-21.1-6.5
	c-11.3,0-21.4,4.4-30.3,13.2C4933.1,2696.9,4927.9,2709.1,4926.4,2724.7L4926.4,2724.7z"/>
<path class="st10" d="M5218.4,2700.2c21.9-26.4,42.8-39.6,62.6-39.6c10.2,0,19,2.6,26.3,7.7c7.3,5.1,13.2,13.5,17.5,25.2
	c3,8.2,4.5,20.7,4.5,37.5v79.7c0,11.8,1,19.9,2.9,24.1c1.5,3.4,4,6.2,7.2,7.9c3.3,1.9,9.5,2.9,18.4,2.9v7.4h-92.4v-7.4h3.9
	c8.7,0,14.8-1.3,18.2-4c3.7-3,6.2-7.1,7.2-11.7c0.5-2,0.8-8.4,0.8-19.2v-76.5c0-17-2.2-29.3-6.6-37s-11.9-11.5-22.3-11.5
	c-16.2,0-32.3,8.8-48.3,26.5v98.5c0,12.6,0.7,20.5,2.2,23.4c1.6,3.6,4.4,6.7,7.8,8.7c3.3,1.8,10.1,2.8,20.3,2.8v7.4h-92.4v-7.4h4.1
	c9.5,0,15.9-2.4,19.3-7.2c3.3-4.8,5-14,5-27.6v-69.3c0-22.4-0.5-36.1-1.5-41s-2.6-8.2-4.7-10c-2.4-1.9-5.4-2.8-8.5-2.7
	c-4.7,0.2-9.3,1.2-13.7,3.1l-3.1-7.4l56.3-22.8h8.8L5218.4,2700.2z"/>
<path class="st10" d="M5507.5,2698.4c18.1-25.2,37.6-37.7,58.5-37.7c19.2,0,35.9,8.2,50.2,24.6c14.3,16.4,21.4,38.8,21.4,67.2
	c0,33.2-11,59.9-33,80.1c-18.9,17.4-40,26.1-63.2,26.1c-11.3-0.1-22.5-2.1-33.2-5.9c-12.2-4.4-23.7-10.4-34.4-17.7v-193.5
	c0-21.2-0.5-34.3-1.5-39.2s-2.6-8.2-4.8-10c-2.3-1.8-5.2-2.8-8.2-2.7c-3.8,0-8.6,1.1-14.3,3.3l-2.8-7.1l56.1-22.8h9.2L5507.5,2698.4
	z M5507.5,2711.4v111.8c6.2,6.3,13.5,11.5,21.5,15.4c7.1,3.4,14.9,5.2,22.7,5.2c12.4,0,23.9-6.8,34.6-20.4
	c10.7-13.6,16-33.4,16-59.3c0-23.9-5.3-42.3-16-55.2c-10.6-12.8-22.8-19.3-36.4-19.3c-7.5,0.1-15,2-21.6,5.5
	C5522.8,2697.9,5515.9,2703.3,5507.5,2711.4L5507.5,2711.4z"/>
<path class="st10" d="M5912.4,2666.1v113.2c0,21.6,0.5,34.8,1.5,39.7c1,4.8,2.7,8.2,4.9,10.1c2.2,1.9,5,2.9,7.8,2.9
	c4.9-0.2,9.8-1.4,14.3-3.5l2.8,7.1l-55.9,23h-9.2V2819c-16,17.4-28.3,28.3-36.7,32.8c-8.2,4.4-17.4,6.7-26.7,6.7
	c-9.8,0.2-19.5-3-27.2-9.1c-7.6-6-13.2-14.1-16-23.3c-3-9.5-4.5-23-4.5-40.4v-83.4c0-8.8-1-15-2.9-18.4s-4.9-6.2-8.5-7.8
	c-3.7-1.8-10.5-2.7-20.3-2.5v-7.5h65.5v125c0,17.4,3,28.8,9.1,34.3c6,5.4,13.8,8.3,21.9,8.2c5.8,0,12.5-1.8,19.9-5.5
	s16.2-10.7,26.4-21v-105.8c0-10.6-1.9-17.8-5.8-21.5s-11.9-5.7-24.2-6v-7.6L5912.4,2666.1L5912.4,2666.1z M5803.7,2580.5
	c5.9-0.1,11.7,2.2,15.8,6.5c4.2,4.1,6.5,9.8,6.4,15.7c0.1,5.9-2.3,11.5-6.5,15.6c-4.1,4.2-9.7,6.5-15.5,6.4
	c-5.9,0.1-11.6-2.2-15.7-6.4c-4.3-4.1-6.6-9.7-6.5-15.6c-0.1-5.9,2.2-11.6,6.4-15.7C5792.2,2582.8,5797.8,2580.4,5803.7,2580.5
	L5803.7,2580.5z M5875.7,2580.5c5.9-0.1,11.5,2.3,15.6,6.5c4.2,4.1,6.5,9.8,6.4,15.7c0,12.1-9.7,22-21.9,22c-0.1,0-0.1,0-0.2,0
	c-5.9,0.1-11.6-2.2-15.7-6.4c-4.3-4.1-6.6-9.7-6.5-15.6C5853.5,2590.4,5863.4,2580.5,5875.7,2580.5z"/>
<path class="st10" d="M6095.6,2660.7v42c15.6-28,31.7-42,48.1-42c7.5,0,13.7,2.3,18.5,6.8c4.9,4.6,7.4,9.8,7.4,15.8
	c0.1,5-1.8,9.9-5.3,13.5c-3.2,3.5-7.8,5.5-12.7,5.5c-4.8,0-10.1-2.3-16-7s-10.3-7-13.2-7c-2.5,0-5.1,1.4-7.9,4.1
	c-6.1,5.6-12.4,14.7-19,27.5v89.5c0,10.3,1.3,18.1,3.9,23.4c2.1,4,5.4,7.2,9.4,9.2c4.5,2.5,10.9,3.7,19.4,3.7v7.4h-95.6v-7.4
	c9.5,0,16.6-1.5,21.2-4.5c3.6-2.5,6.1-6.2,7.1-10.4c0.7-2.3,1-8.9,1-19.8v-72.4c0-21.8-0.4-34.7-1.3-38.9s-2.5-7.2-4.9-9.1
	c-2.5-2-5.7-3-8.9-2.9c-4.9,0.1-9.7,1.2-14.3,3.1l-2-7.4l56.5-22.8L6095.6,2660.7L6095.6,2660.7z"/>
<path class="st10" d="M6355,2660.7c28.3,0,51,10.7,68.1,32.2c14.4,17.9,22.1,40.3,21.8,63.2c0,16.7-4,33.6-12,50.8
	c-8,17.1-19.1,30.1-33.2,38.7c-14.1,8.7-30.4,13.2-47,13c-28.1,0-50.5-11.2-67.1-33.6c-13.8-18.3-21.2-40.7-21-63.6
	c0-17.1,4.2-34.1,12.7-51.1c8.5-16.9,19.7-29.4,33.5-37.5C6324.2,2664.9,6339.4,2660.7,6355,2660.7z M6348.6,2673.9
	c-7.7,0.1-15.2,2.4-21.7,6.4c-7.3,4.3-13.2,11.8-17.6,22.5c-4.5,10.7-6.7,24.5-6.7,41.4c0,27.2,5.4,50.6,16.2,70.3
	c10.8,19.7,25.1,29.6,42.8,29.6c13.2,0,24.1-5.4,32.6-16.3c8.6-10.9,12.8-29.6,12.8-56.2c0-33.2-7.1-59.3-21.4-78.3
	C6375.9,2680.4,6363.6,2673.9,6348.6,2673.9z"/>
</svg>
